<?xml version="1.0" encoding="UTF-8"?>
<!DOCTYPE svg PUBLIC "-//W3C//DTD SVG 1.1//EN" "http://www.w3.org/Graphics/SVG/1.1/DTD/svg11.dtd">
<svg xmlns="http://www.w3.org/2000/svg" version="1.1" width="1000px" height="1000px" style="shape-rendering:geometricPrecision; text-rendering:geometricPrecision; image-rendering:optimizeQuality; fill-rule:evenodd; clip-rule:evenodd" xmlns:xlink="http://www.w3.org/1999/xlink">
<g><path style="opacity:0.996" fill="#fc0000" d="M 260.5,187.5 C 420.167,187.333 579.834,187.5 739.5,188C 779.696,196.196 803.862,220.362 812,260.5C 812.667,420.167 812.667,579.833 812,739.5C 803.804,779.696 779.638,803.862 739.5,812C 579.833,812.667 420.167,812.667 260.5,812C 220.304,803.804 196.138,779.638 188,739.5C 187.333,579.833 187.333,420.167 188,260.5C 196.376,220.291 220.542,195.958 260.5,187.5 Z"/></g>
<g><path style="opacity:1" fill="#565555" d="M 264.5,217.5 C 420.5,217.333 576.5,217.5 732.5,218C 759.527,222.268 776.027,237.768 782,264.5C 782.667,420.5 782.667,576.5 782,732.5C 777.509,760.991 761.009,777.491 732.5,782C 576.833,782.667 421.167,782.667 265.5,782C 237.644,776.477 221.81,759.644 218,731.5C 217.333,575.833 217.333,420.167 218,264.5C 223.681,238.987 239.181,223.32 264.5,217.5 Z"/></g>
<g><path style="opacity:1" fill="#747474" d="M 286.5,258.5 C 427.834,258.333 569.167,258.5 710.5,259C 726.475,262.309 736.642,271.809 741,287.5C 741.667,428.833 741.667,570.167 741,711.5C 737.378,728.789 726.878,738.956 709.5,742C 568.167,742.667 426.833,742.667 285.5,742C 269.944,737.109 260.777,726.609 258,710.5C 257.333,569.167 257.333,427.833 258,286.5C 262.461,271.885 271.961,262.551 286.5,258.5 Z"/></g>
<g><path style="opacity:1" fill="#010100" d="M 497.5,299.5 C 498.552,299.351 499.552,299.517 500.5,300C 567.194,366.361 633.528,433.027 699.5,500C 632.667,566.833 565.833,633.667 499,700.5C 431.986,633.653 365.153,566.653 298.5,499.5C 364.187,432.147 430.52,365.48 497.5,299.5 Z"/></g>
<g><path style="opacity:1" fill="#f78500" d="M 497.5,327.5 C 498.552,327.351 499.552,327.517 500.5,328C 517.5,345 534.5,362 551.5,379C 533.794,376.35 516.128,373.183 498.5,369.5C 481.199,373.216 463.865,376.383 446.5,379C 463.702,361.965 480.702,344.799 497.5,327.5 Z"/></g>
<g><path style="opacity:1" fill="#fd8800" d="M 491.5,390.5 C 520.081,393.715 548.414,398.549 576.5,405C 582.699,410.864 588.532,417.031 594,423.5C 598.333,446.167 602.667,468.833 607,491.5C 607.667,496.167 607.667,500.833 607,505.5C 602.46,529.864 597.794,554.197 593,578.5C 588.167,583.333 583.333,588.167 578.5,593C 552.068,598.42 525.568,603.586 499,608.5C 472.453,603.591 445.953,598.424 419.5,593C 414.333,587.833 409.167,582.667 404,577.5C 398.949,551.193 394.116,524.86 389.5,498.5C 394.018,473.097 398.851,447.764 404,422.5C 410.167,416.333 416.333,410.167 422.5,404C 445.695,399.794 468.695,395.294 491.5,390.5 Z"/></g>
<g><path style="opacity:1" fill="#030100" d="M 490.5,439.5 C 520.993,437.859 542.493,450.859 555,478.5C 563.561,508.793 555.061,532.96 529.5,551C 496.279,566.76 468.779,559.926 447,530.5C 431.24,497.279 438.074,469.779 467.5,448C 474.742,443.646 482.409,440.812 490.5,439.5 Z"/></g>
<g><path style="opacity:1" fill="#fa8700" d="M 618.5,446.5 C 635.785,464.119 653.118,481.786 670.5,499.5C 653.514,516.986 636.347,534.319 619,551.5C 621.592,533.95 624.759,516.45 628.5,499C 625.058,481.512 621.725,464.012 618.5,446.5 Z"/></g>
<g><path style="opacity:1" fill="#fb8700" d="M 377.5,447.5 C 378.124,447.917 378.457,448.584 378.5,449.5C 375.371,465.81 372.371,482.143 369.5,498.5C 372.23,515.044 375.23,531.544 378.5,548C 378.167,548.833 377.833,549.667 377.5,550.5C 360.708,533.207 343.708,516.041 326.5,499C 343.702,481.965 360.702,464.799 377.5,447.5 Z"/></g>
<g><path style="opacity:1" fill="#fc0000" d="M 490.5,457.5 C 516.178,455.703 532.678,467.036 540,491.5C 542.283,517.201 531.116,533.701 506.5,541C 480.811,543.298 464.311,532.132 457,507.5C 454.907,481.787 466.074,465.121 490.5,457.5 Z"/></g>
<g><path style="opacity:1" fill="#f78600" d="M 446.5,619.5 C 463.887,621.649 481.387,624.649 499,628.5C 516.439,624.678 533.939,621.511 551.5,619C 534.293,636.541 516.793,653.708 499,670.5C 481.339,653.673 463.839,636.673 446.5,619.5 Z"/></g>
</svg>
