<?xml version="1.0" encoding="UTF-8"?>
<!DOCTYPE svg PUBLIC "-//W3C//DTD SVG 1.1//EN" "http://www.w3.org/Graphics/SVG/1.1/DTD/svg11.dtd">
<svg xmlns="http://www.w3.org/2000/svg" version="1.1" width="1000px" height="1000px" style="shape-rendering:geometricPrecision; text-rendering:geometricPrecision; image-rendering:optimizeQuality; fill-rule:evenodd; clip-rule:evenodd" xmlns:xlink="http://www.w3.org/1999/xlink">
<g><path style="opacity:0.987" fill="#000000" d="M 295.5,139.5 C 346.845,160.005 398.012,181.005 449,202.5C 458.418,196.874 467.918,191.374 477.5,186C 492.158,180.038 506.824,180.038 521.5,186C 531.082,191.374 540.582,196.874 550,202.5C 601.01,181.494 652.01,160.494 703,139.5C 706.08,140.199 708.414,141.866 710,144.5C 717.092,198.902 724.592,253.235 732.5,307.5C 743.333,313.749 754,320.249 764.5,327C 772.711,334.922 778.211,344.422 781,355.5C 782,368.816 782.833,382.15 783.5,395.5C 826.243,428.621 869.076,461.621 912,494.5C 914.269,498.714 913.769,502.547 910.5,506C 868.024,538.308 825.691,570.808 783.5,603.5C 782.828,616.516 781.994,629.516 781,642.5C 778.2,655.949 771.366,666.783 760.5,675C 751.036,680.301 741.703,685.801 732.5,691.5C 724.592,745.759 717.092,800.092 710,854.5C 707.005,858.723 703.171,859.889 698.5,858C 648.983,837.496 599.483,816.996 550,796.5C 540.582,802.126 531.082,807.626 521.5,813C 506.842,818.962 492.176,818.962 477.5,813C 467.918,807.626 458.418,802.126 449,796.5C 398.305,817.789 347.471,838.789 296.5,859.5C 292.539,858.705 290.039,856.371 289,852.5C 281.973,799.477 274.806,746.477 267.5,693.5C 266.99,691.912 265.99,690.745 264.5,690C 254.169,684.503 244.169,678.503 234.5,672C 226.289,664.078 220.789,654.578 218,643.5C 216.834,630.199 216.168,616.865 216,603.5C 172.714,570.549 129.714,537.216 87,503.5C 85.6986,501.635 85.3653,499.635 86,497.5C 87.4578,495.04 89.2911,492.873 91.5,491C 133.09,459.288 174.59,427.454 216,395.5C 216.173,382.468 216.84,369.468 218,356.5C 220.8,343.051 227.634,332.217 238.5,324C 247.964,318.699 257.297,313.199 266.5,307.5C 274.732,253.979 282.232,200.312 289,146.5C 290.018,142.985 292.185,140.652 295.5,139.5 Z"/></g>
<g><path style="opacity:1" fill="#fd0000" d="M 315.5,180.5 C 349.127,193.653 382.46,207.486 415.5,222C 377.833,243.833 340.167,265.667 302.5,287.5C 301.345,284.554 301.179,281.554 302,278.5C 306.274,245.752 310.774,213.086 315.5,180.5 Z"/></g>
<g><path style="opacity:1" fill="#fd0000" d="M 681.5,180.5 C 682.5,180.5 683.5,180.5 684.5,180.5C 689.496,216.471 693.996,252.471 698,288.5C 659.915,266.207 621.749,244.04 583.5,222C 616.274,208.248 648.941,194.414 681.5,180.5 Z"/></g>
<g><path style="opacity:1" fill="#565555" d="M 495.5,211.5 C 500.371,211.192 505.037,212.025 509.5,214C 585.003,257.919 660.67,301.586 736.5,345C 743.055,348.555 747.888,353.721 751,360.5C 751.667,452.833 751.667,545.167 751,637.5C 748.311,644.857 743.478,650.357 736.5,654C 659.833,698 583.167,742 506.5,786C 499.898,788.217 493.564,787.55 487.5,784C 411.092,739.267 334.425,694.934 257.5,651C 253.182,647.685 250.015,643.519 248,638.5C 247.333,545.833 247.333,453.167 248,360.5C 252.224,351.942 258.724,345.776 267.5,342C 343.475,298.188 419.475,254.688 495.5,211.5 Z"/></g>
<g><path style="opacity:1" fill="#747474" d="M 492.5,280.5 C 502.804,279.435 512.137,281.935 520.5,288C 573.336,318.919 626.336,349.586 679.5,380C 685.503,383.671 689.669,388.838 692,395.5C 692.667,464.5 692.667,533.5 692,602.5C 689.376,610.791 684.209,616.958 676.5,621C 620.67,652.747 565.003,684.747 509.5,717C 502.486,718.954 495.486,718.954 488.5,717C 432.758,684.267 376.758,651.934 320.5,620C 312.534,615.369 307.7,608.536 306,599.5C 305.333,532.833 305.333,466.167 306,399.5C 308.082,389.747 313.582,382.58 322.5,378C 379.098,345.206 435.765,312.706 492.5,280.5 Z"/></g>
<g><path style="opacity:1" fill="#020101" d="M 489.5,430.5 C 524.44,428.376 549.273,443.043 564,474.5C 574.599,508.967 565.432,536.801 536.5,558C 502.675,575.633 472.509,570.8 446,543.5C 426.687,516.141 425.687,488.141 443,459.5C 454.811,443.848 470.311,434.181 489.5,430.5 Z"/></g>
<g><path style="opacity:1" fill="#fd0000" d="M 215.5,433.5 C 216.833,455.156 217.5,477.156 217.5,499.5C 217.167,521.5 216.833,543.5 216.5,565.5C 188.143,543.469 159.809,521.469 131.5,499.5C 159.806,477.858 187.806,455.858 215.5,433.5 Z"/></g>
<g><path style="opacity:1" fill="#fd0000" d="M 781.5,432.5 C 810.537,454.353 839.204,476.686 867.5,499.5C 839.311,522.184 810.811,544.518 782,566.5C 781.5,521.835 781.333,477.168 781.5,432.5 Z"/></g>
<g><path style="opacity:1" fill="#fd0000" d="M 490.5,448.5 C 521.696,446.662 541.53,460.662 550,490.5C 552.412,519.723 539.912,539.223 512.5,549C 481.523,553.936 460.69,541.769 450,512.5C 445.466,479.57 458.966,458.236 490.5,448.5 Z"/></g>
<g><path style="opacity:1" fill="#fd0000" d="M 301.5,711.5 C 339.608,733.057 377.608,754.89 415.5,777C 382.575,790.922 349.575,804.756 316.5,818.5C 310.603,782.995 305.603,747.328 301.5,711.5 Z"/></g>
<g><path style="opacity:1" fill="#fd0000" d="M 697.5,710.5 C 698.097,710.735 698.43,711.235 698.5,712C 693.382,747.441 688.716,782.941 684.5,818.5C 650.607,805.22 616.941,791.387 583.5,777C 621.669,754.97 659.669,732.803 697.5,710.5 Z"/></g>
</svg>
