<?xml version="1.0" encoding="UTF-8"?>
<!DOCTYPE svg PUBLIC "-//W3C//DTD SVG 1.1//EN" "http://www.w3.org/Graphics/SVG/1.1/DTD/svg11.dtd">
<svg xmlns="http://www.w3.org/2000/svg" version="1.1" width="1000px" height="1000px" style="shape-rendering:geometricPrecision; text-rendering:geometricPrecision; image-rendering:optimizeQuality; fill-rule:evenodd; clip-rule:evenodd" xmlns:xlink="http://www.w3.org/1999/xlink">
<g><path style="opacity:0.988" fill="#000000" d="M 498.5,63.5 C 500.716,64.2026 502.549,65.5359 504,67.5C 542.833,113 581.667,158.5 620.5,204C 683.208,200.292 745.875,195.792 808.5,190.5C 803.208,253.125 798.708,315.792 795,378.5C 842.006,418.676 888.839,459.009 935.5,499.5C 891.84,537.658 848.006,575.658 804,613.5C 801.401,619.089 798.401,624.423 795,629.5C 799.166,689.156 803.666,748.822 808.5,808.5C 753.174,804.167 697.84,799.834 642.5,795.5C 632.235,799.088 621.902,802.588 611.5,806C 574.324,849.34 536.991,892.506 499.5,935.5C 463.107,893.727 426.94,851.727 391,809.5C 389.457,807.622 387.624,806.122 385.5,805C 375.958,801.819 366.458,798.653 357,795.5C 301.49,799.808 245.99,804.142 190.5,808.5C 195.385,748.5 199.885,688.5 204,628.5C 200.721,620.557 195.888,613.723 189.5,608C 147.273,572.06 105.273,535.893 63.5,499.5C 110.161,459.009 156.994,418.676 204,378.5C 200.292,315.792 195.792,253.125 190.5,190.5C 253.125,195.792 315.792,200.292 378.5,204C 418.71,157.294 458.71,110.461 498.5,63.5 Z"/></g>
<g><path style="opacity:1" fill="#00fd37" d="M 498.5,110.5 C 501.056,111.543 503.223,113.21 505,115.5C 524.5,138.333 544,161.167 563.5,184C 552.717,180.888 541.717,178.222 530.5,176C 511.548,173.116 492.548,172.782 473.5,175C 460.162,177.462 447.162,180.795 434.5,185C 456.043,160.294 477.376,135.461 498.5,110.5 Z"/></g>
<g><path style="opacity:1" fill="#5c5c5c" d="M 483.5,203.5 C 506.399,202.063 528.733,204.896 550.5,212C 597.41,233.788 644.077,256.121 690.5,279C 727.068,301.575 750.568,333.742 761,375.5C 771,419.5 781,463.5 791,507.5C 797.033,549.692 787.699,588.025 763,622.5C 735.286,656.545 707.953,690.878 681,725.5C 654.392,757.724 620.225,776.224 578.5,781C 525.167,781.667 471.833,781.667 418.5,781C 380.388,775.855 348.555,759.022 323,730.5C 295.38,695.211 267.38,660.211 239,625.5C 214.475,592.577 204.142,555.577 208,514.5C 217.949,467.753 228.283,421.086 239,374.5C 250.288,330.897 275.455,298.063 314.5,276C 356.712,255.394 399.045,235.061 441.5,215C 455.2,209.578 469.2,205.745 483.5,203.5 Z"/></g>
<g><path style="opacity:1" fill="#00fd37" d="M 223.5,223.5 C 260.532,226.224 297.532,229.391 334.5,233C 312.244,242.121 291.577,253.787 272.5,268C 255.742,281.415 241.909,297.248 231,315.5C 228.409,284.829 225.909,254.163 223.5,223.5 Z"/></g>
<g><path style="opacity:1" fill="#00fd37" d="M 768.5,223.5 C 770.833,223.5 773.167,223.5 775.5,223.5C 772.853,253.802 770.353,284.136 768,314.5C 752.119,288.953 731.286,268.453 705.5,253C 692.136,246.318 678.802,239.651 665.5,233C 699.935,229.443 734.268,226.276 768.5,223.5 Z"/></g>
<g><path style="opacity:1" fill="#4b4b4b" d="M 489.5,237.5 C 502.546,236.768 515.213,238.602 527.5,243C 579.5,268 631.5,293 683.5,318C 701.169,328.51 712.669,343.677 718,363.5C 730.794,419.138 743.461,474.804 756,530.5C 758.57,550.218 754.237,568.218 743,584.5C 707.62,628.212 672.62,672.212 638,716.5C 625.932,729.785 611.098,738.285 593.5,742C 531.167,742.667 468.833,742.667 406.5,742C 388.8,738.951 373.967,730.785 362,717.5C 327.907,674.318 293.574,631.318 259,588.5C 244.724,570.132 239.724,549.465 244,526.5C 256.39,468.941 269.723,411.607 284,354.5C 290.563,338.937 301.063,326.77 315.5,318C 364.622,294.606 413.622,270.939 462.5,247C 471.292,242.905 480.292,239.738 489.5,237.5 Z"/></g>
<g><path style="opacity:1" fill="#0d9129" d="M 487.5,271.5 C 504.307,269.912 520.307,272.745 535.5,280C 575.562,299.365 615.562,318.699 655.5,338C 673.578,348.757 685.744,364.257 692,384.5C 702.653,430.746 712.986,477.08 723,523.5C 725.041,543.041 720.708,561.041 710,577.5C 681.333,613.5 652.667,649.5 624,685.5C 611.31,699.833 595.476,708.667 576.5,712C 525.5,712.667 474.5,712.667 423.5,712C 404.065,709.035 387.898,700.201 375,685.5C 347.713,650.545 320.047,615.878 292,581.5C 276.075,560.122 271.409,536.455 278,510.5C 287.128,471.192 296.128,431.858 305,392.5C 310.073,368.774 322.906,350.607 343.5,338C 384.868,317.993 426.202,297.993 467.5,278C 474.237,275.635 480.904,273.468 487.5,271.5 Z"/></g>
<g><path style="opacity:1" fill="#6c6c6c" d="M 490.5,304.5 C 499.74,303.882 508.74,305.049 517.5,308C 558.833,328 600.167,348 641.5,368C 650.206,374.242 656.372,382.409 660,392.5C 670.106,436.129 680.106,479.796 690,523.5C 692.128,537.437 689.128,550.103 681,561.5C 652.62,596.211 624.62,631.211 597,666.5C 590.251,672.625 582.418,676.792 573.5,679C 523.833,679.667 474.167,679.667 424.5,679C 413.341,675.679 404.174,669.513 397,660.5C 369.333,625.5 341.667,590.5 314,555.5C 308.816,545.435 307.149,534.768 309,523.5C 319.382,479.923 329.382,436.256 339,392.5C 342.628,382.409 348.794,374.242 357.5,368C 401.712,346.224 446.046,325.057 490.5,304.5 Z"/></g>
<g><path style="opacity:1" fill="#00fd37" d="M 195.5,425.5 C 196.097,425.735 196.43,426.235 196.5,427C 190.251,453.08 184.417,479.246 179,505.5C 177.369,523.16 177.036,540.827 178,558.5C 155.179,539.177 132.679,519.51 110.5,499.5C 138.853,474.811 167.186,450.144 195.5,425.5 Z"/></g>
<g><path style="opacity:1" fill="#00fd37" d="M 803.5,426.5 C 832.134,450.466 860.467,474.799 888.5,499.5C 866.803,519.364 844.636,538.697 822,557.5C 821.97,548.513 822.137,539.513 822.5,530.5C 822.509,522.132 822.009,513.798 821,505.5C 815.326,479.136 809.492,452.802 803.5,426.5 Z"/></g>
<g><path style="opacity:1" fill="#010201" d="M 490.5,430.5 C 525.045,428.679 549.545,443.346 564,474.5C 574.601,508.956 565.434,536.789 536.5,558C 502.67,575.632 472.503,570.799 446,543.5C 425.369,514.163 425.369,484.83 446,455.5C 458.049,442.062 472.883,433.729 490.5,430.5 Z"/></g>
<g><path style="opacity:1" fill="#00fd37" d="M 490.5,448.5 C 521.709,446.667 541.542,460.667 550,490.5C 552.319,521.719 538.486,541.552 508.5,550C 477.298,552.325 457.465,538.492 449,508.5C 446.796,477.201 460.629,457.201 490.5,448.5 Z"/></g>
<g><path style="opacity:1" fill="#00fd37" d="M 231.5,665.5 C 254.348,692.143 276.514,719.477 298,747.5C 304.167,755 311,761.833 318.5,768C 286.781,769.966 255.115,772.466 223.5,775.5C 226.931,738.891 229.598,702.224 231.5,665.5 Z"/></g>
<g><path style="opacity:1" fill="#00fd37" d="M 766.5,665.5 C 769.897,701.985 772.897,738.652 775.5,775.5C 744.192,772.78 712.858,770.28 681.5,768C 689,761.833 695.833,755 702,747.5C 723.333,720.004 744.833,692.671 766.5,665.5 Z"/></g>
<g><path style="opacity:1" fill="#282828" d="M 564.5,813.5 C 521.167,812.167 477.833,812.167 434.5,813.5C 433.957,813.44 433.624,813.107 433.5,812.5C 477.5,811.167 521.5,811.167 565.5,812.5C 565.376,813.107 565.043,813.44 564.5,813.5 Z"/></g>
<g><path style="opacity:1" fill="#00fd37" d="M 564.5,813.5 C 543.2,838.801 521.534,863.801 499.5,888.5C 477.466,863.801 455.8,838.801 434.5,813.5C 477.833,812.167 521.167,812.167 564.5,813.5 Z"/></g>
</svg>
